<?xml version="1.0" encoding="UTF-8" standalone="no"?>
<!DOCTYPE svg PUBLIC "-//W3C//DTD SVG 20010904//EN" "http://www.w3.org/TR/2001/REC-SVG-20010904/DTD/svg10.dtd">
<svg version="1.0" xmlns="http://www.w3.org/2000/svg" width="469.765951pt" height="398.052192pt" viewBox="0 0 469.765951 398.052192" preserveAspectRatio="xMidYMid meet">
<metadata>
Created by potrace 1.12, written by Peter Selinger 2001-2015
</metadata>
<g transform="translate(-21.100277,455.014289) scale(0.100000,-0.100000)" fill="#000000" stroke="none">
<path d="M355 4538 c-49 -18 -83 -47 -112 -96 l-28 -47 -3 -779 c-3 -886 -6 -853 72 -924 24 -22 62 -46 84 -52 28 -7 336 -10 1004 -8 l963 3 45 25 c28 16 55 43 75 74 l30 49 3 786 c2 599 0 797 -9 831 -16 56 -82 124 -135 139 -54 15 -1947 14 -1989 -1z m1749 -289 l26 -20 0 -636 c0 -578 -2 -638 -17 -655 -14 -16 -34 -18 -191 -18 -149 0 -178 2 -194 17 -17 15 -18 49 -18 654 l0 638 26 20 c24 19 40 21 184 21 144 0 160 -2 184 -21z m-564 -429 c19 -19 20 -33 20 -442 0 -378 -2 -423 -17 -440 -14 -16 -34 -18 -194 -18 -172 0 -178 1 -193 22 -14 19 -16 78 -16 437 0 412 0 415 22 438 21 22 27 23 190 23 155 0 170 -2 188 -20z m-564 -361 c18 -20 19 -39 19 -259 0 -220 -1 -239 -19 -259 -18 -20 -29 -21 -193 -21 -160 0 -175 2 -193 20 -19 19 -20 33 -20 260 0 227 1 241 20 260 18 18 33 20 193 20 164 0 175 -1 193 -21z"/>
<path d="M2752 4529 c-51 -26 -95 -76 -111 -128 -17 -57 -16 -3628 1 -3685 16 -53 84 -121 134 -135 27 -7 349 -11 1000 -11 l962 0 53 28 c39 20 62 41 84 77 l30 48 3 1791 c2 985 0 1815 -3 1843 -8 67 -55 139 -110 167 -40 21 -51 21 -1020 24 l-980 2 -43 -21z m1216 -360 c155 -35 299 -118 414 -236 166 -171 247 -390 235 -632 -7 -137 -24 -204 -81 -326 -164 -346 -547 -542 -921 -470 -310 59 -554 273 -655 573 -29 85 -34 113 -38 232 -3 114 -1 149 17 223 84 354 382 619 736 656 100 10 186 5 293 -20z m492 -1989 c27 -27 25 -66 -5 -95 l-24 -25 -694 0 c-687 0 -695 0 -721 21 -31 24 -35 72 -9 101 15 17 51 18 725 18 695 0 708 0 728 -20z m-503 -282 c29 -27 30 -71 3 -98 -19 -19 -33 -20 -367 -20 -342 0 -347 0 -370 22 -30 28 -29 63 2 93 l24 25 342 0 c338 0 343 0 366 -22z m142 -282 c31 -28 28 -79 -5 -105 -26 -20 -38 -21 -355 -21 -190 0 -339 4 -354 10 -55 21 -53 108 4 129 15 6 158 9 357 8 311 -2 333 -3 353 -21z m-139 -286 c11 -11 20 -33 20 -50 0 -17 -9 -39 -20 -50 -19 -19 -33 -20 -367 -20 -342 0 -347 0 -370 22 -29 27 -29 65 -1 95 l21 23 349 0 c335 0 349 -1 368 -20z m501 -289 c24 -30 24 -62 0 -92 l-19 -24 -705 0 c-679 0 -706 1 -726 19 -31 28 -28 79 6 105 26 21 29 21 725 19 l700 -3 19 -24z"/>
<path d="M3592 4030 c-200 -53 -365 -188 -457 -372 -59 -121 -78 -211 -72 -348 8 -186 73 -335 202 -466 407 -410 1098 -193 1204 379 l8 47 -362 0 c-351 0 -363 1 -389 21 l-26 20 0 370 c0 345 -1 369 -17 368 -10 0 -51 -9 -91 -19z"/>
<path d="M3840 3730 l0 -320 315 0 315 0 0 38 c0 49 -49 188 -91 260 -19 31 -70 93 -114 137 -108 109 -234 174 -387 200 l-38 6 0 -321z"/>
<path d="M357 2476 c-68 -25 -111 -71 -132 -142 -14 -45 -15 -153 -13 -831 l3 -780 30 -49 c23 -37 44 -56 85 -77 l54 -27 982 2 982 3 44 30 c28 20 52 49 71 85 l27 55 -2 796 -3 796 -30 49 c-23 37 -44 56 -84 77 l-55 27 -960 0 c-784 -1 -968 -3 -999 -14z m1821 -432 c16 -11 22 -25 22 -52 0 -34 -17 -53 -317 -354 -332 -332 -376 -368 -452 -368 -72 0 -112 20 -187 91 -113 107 -91 117 -390 -182 -219 -219 -254 -250 -282 -251 -42 -1 -72 27 -72 66 0 27 31 62 258 288 141 141 271 263 289 272 40 20 132 21 178 2 19 -8 66 -44 104 -80 52 -48 78 -66 98 -66 23 0 83 56 353 325 343 343 346 345 398 309z"/>
</g>
</svg>