<?xml version="1.0" encoding="UTF-8" standalone="no"?>
<!DOCTYPE svg PUBLIC "-//W3C//DTD SVG 20010904//EN" "http://www.w3.org/TR/2001/REC-SVG-20010904/DTD/svg10.dtd">
<svg version="1.0" xmlns="http://www.w3.org/2000/svg" width="476.921680pt" height="143.553629pt" viewBox="0 0 476.921680 143.553629" preserveAspectRatio="xMidYMid meet">
<metadata>
Created by potrace 1.12, written by Peter Selinger 2001-2015
</metadata>
<g transform="translate(-18.078320,327.599342) scale(0.100000,-0.100000)" fill="#000000" stroke="none">
<path d="M2385 3269 c-91 -12 -249 -52 -324 -83 l-59 -24 -58 19 c-31 10 -107 29 -168 41 -100 21 -140 23 -401 23 -266 0 -299 -2 -405 -24 -203 -42 -322 -94 -415 -182 l-50 -47 -142 -4 c-122 -3 -144 -6 -162 -22 -25 -23 -27 -53 -5 -84 15 -21 21 -22 190 -22 l174 0 57 61 c140 149 388 207 831 196 236 -6 356 -22 483 -63 l78 -26 68 27 c168 68 308 96 487 96 184 0 316 -26 483 -93 l77 -31 61 21 c159 57 340 76 633 69 391 -10 572 -62 698 -201 l55 -61 151 -3 c83 -2 161 -1 174 2 33 9 54 34 54 66 0 51 -27 60 -184 60 l-139 0 -57 54 c-162 155 -466 226 -910 213 -203 -6 -314 -21 -453 -62 l-82 -24 -115 39 c-63 21 -151 46 -195 55 -95 20 -332 28 -430 14z"/>
<path d="M2223 2920 c-32 -13 -39 -54 -19 -116 42 -132 27 -267 -45 -413 -85 -172 -282 -321 -502 -381 -226 -61 -502 -41 -702 49 -216 98 -377 286 -418 486 -10 53 -19 73 -39 88 -31 23 -62 16 -84 -19 -15 -22 -15 -30 1 -100 66 -296 336 -550 683 -641 131 -34 355 -43 487 -19 240 44 424 142 577 305 136 145 198 288 206 473 3 64 1 113 -5 120 -6 7 -20 43 -32 80 -12 36 -27 71 -34 76 -20 16 -51 21 -74 12z"/>
<path d="M2827 2912 c-60 -66 -81 -256 -45 -412 32 -140 160 -335 279 -427 204 -157 385 -221 650 -230 136 -5 170 -3 265 17 181 37 303 92 452 205 137 105 251 275 289 434 20 84 12 119 -32 140 -25 12 -32 12 -54 0 -21 -12 -30 -31 -48 -101 -52 -206 -183 -362 -388 -463 -331 -163 -758 -127 -1040 88 -197 150 -304 406 -250 597 9 30 18 74 22 96 4 35 2 44 -18 58 -31 21 -62 20 -82 -2z"/>
<path d="M1240 2896 c-97 -21 -171 -52 -252 -105 -127 -84 -160 -141 -108 -183 33 -27 54 -22 105 22 25 22 50 40 54 40 5 0 11 -18 15 -41 22 -135 146 -245 290 -256 167 -14 306 85 347 245 l16 64 46 -40 c26 -22 55 -43 66 -47 40 -12 89 36 76 75 -19 60 -210 182 -340 216 -84 22 -236 26 -315 10z m293 -137 c36 -12 37 -13 37 -63 0 -131 -109 -217 -245 -192 -43 8 -113 68 -132 113 -16 40 -17 119 -1 129 53 33 255 40 341 13z"/>
<path d="M3560 2867 c-136 -38 -210 -77 -292 -155 -60 -57 -49 -122 22 -122 11 0 44 18 72 41 l52 41 8 -28 c34 -118 68 -171 141 -219 126 -83 294 -70 405 30 46 41 102 144 102 187 0 15 3 28 8 28 4 0 29 -18 56 -40 53 -44 93 -51 119 -22 29 31 21 62 -27 106 -61 58 -157 112 -251 143 -118 38 -296 43 -415 10z m343 -117 c35 -10 37 -13 37 -55 0 -81 -39 -141 -115 -176 -80 -37 -163 -20 -224 46 -45 49 -54 72 -49 136 l3 44 55 12 c63 14 235 10 293 -7z"/>
</g>
</svg>