<?xml version="1.0" encoding="UTF-8" standalone="no"?>
<!DOCTYPE svg PUBLIC "-//W3C//DTD SVG 20010904//EN" "http://www.w3.org/TR/2001/REC-SVG-20010904/DTD/svg10.dtd">
<svg version="1.0" xmlns="http://www.w3.org/2000/svg" width="480.053127pt" height="480.000000pt" viewBox="0 0 480.053127 480.000000" preserveAspectRatio="xMidYMid meet">
<metadata>
Created by potrace 1.12, written by Peter Selinger 2001-2015
</metadata>
<g transform="translate(-15.946873,496.000000) scale(0.100000,-0.100000)" fill="#000000" stroke="none">
<path d="M1785 4935 l-25 -24 0 -296 0 -295 80 0 80 0 0 240 0 240 1440 0 1440 0 0 -2240 0 -2240 -640 0 -640 0 0 -80 0 -80 695 0 696 0 24 25 25 24 0 2351 0 2351 -25 24 -24 25 -1551 0 -1551 0 -24 -25z"/>
<path d="M2105 4615 c-25 -24 -25 -24 -25 -239 l0 -214 -312 -4 c-312 -3 -313 -3 -393 -31 -224 -78 -385 -240 -461 -462 -26 -75 -28 -93 -32 -290 -3 -151 -8 -214 -17 -225 -31 -36 -58 -108 -63 -167 -11 -142 73 -271 212 -325 36 -14 41 -21 65 -89 15 -41 42 -100 60 -133 38 -65 132 -171 186 -207 34 -23 35 -26 35 -86 l0 -63 -112 0 c-284 0 -523 -56 -778 -182 -154 -76 -242 -155 -281 -253 l-24 -60 -3 -688 -3 -687 25 -25 25 -25 1551 0 1551 0 24 25 c24 23 25 29 25 160 l0 135 95 0 c88 0 98 2 120 25 l25 24 0 271 0 271 -25 24 c-22 23 -32 25 -120 25 l-95 0 0 80 0 80 95 0 c88 0 98 2 120 25 l25 24 0 271 0 271 -25 24 c-24 25 -26 25 -216 25 l-191 0 -27 -29 -26 -28 -50 28 c-200 113 -519 189 -791 189 l-114 0 0 63 c0 60 1 63 35 86 97 66 207 219 247 344 22 69 23 69 83 96 121 55 189 160 189 291 0 61 -5 86 -26 130 -15 30 -35 64 -45 76 -30 34 -102 82 -134 89 l-29 7 0 107 c0 95 2 110 23 138 12 17 37 62 56 102 l35 71 63 0 63 0 0 80 0 80 -42 0 -43 0 0 120 0 120 43 0 42 0 0 80 0 80 -64 0 c-61 0 -64 1 -75 29 -12 27 -47 51 -75 51 -8 0 -57 -18 -110 -40 -53 -22 -109 -40 -126 -40 l-30 0 0 120 0 120 240 0 240 0 0 80 0 80 -295 0 -296 0 -24 -25z m215 -1567 c0 -240 -4 -328 -15 -375 -60 -256 -283 -433 -543 -433 -101 0 -170 16 -261 61 -89 44 -195 151 -239 242 -56 115 -63 167 -60 438 l3 242 55 38 c58 41 138 75 205 89 22 4 223 8 448 9 l407 1 0 -312z m-1280 -88 c0 -73 -4 -130 -9 -130 -15 0 -49 48 -62 87 -6 19 -9 51 -6 70 6 35 50 103 68 103 5 0 9 -55 9 -130z m1484 97 c34 -44 42 -103 22 -152 -18 -41 -43 -75 -58 -75 -4 0 -8 59 -8 130 0 75 4 130 9 130 6 0 21 -15 35 -33z m-896 -963 c41 -8 100 -14 132 -14 55 0 185 21 223 35 15 6 17 0 17 -53 0 -59 -2 -64 -117 -256 -65 -108 -120 -196 -123 -196 -3 0 -58 88 -123 195 -115 192 -117 196 -117 256 0 54 2 60 18 54 9 -4 50 -13 90 -21z m-304 -471 c54 -164 103 -309 108 -323 9 -24 11 -23 77 49 37 41 72 72 77 68 6 -3 29 -55 52 -114 l42 -108 -73 -435 -73 -435 -287 -3 -287 -2 0 440 0 440 -80 0 -80 0 0 -440 0 -440 -240 0 -240 0 0 603 c0 384 4 615 10 639 20 72 67 117 185 179 207 109 442 173 650 178 l60 1 99 -297z m1243 271 c166 -28 410 -123 530 -206 24 -16 55 -50 70 -76 l28 -47 3 -622 3 -623 -241 0 -240 0 0 440 0 440 -80 0 -80 0 0 -440 0 -440 -287 2 -287 3 -73 435 -73 435 42 108 c23 59 46 111 52 114 5 4 40 -27 77 -68 66 -72 68 -73 77 -49 5 14 54 159 108 324 l99 298 92 -6 c51 -3 132 -13 180 -22z m873 -294 l0 -160 -40 0 -40 0 0 54 c0 61 -30 166 -60 211 -33 50 -28 55 60 55 l80 0 0 -160z m0 -800 l0 -160 -40 0 -40 0 0 160 0 160 40 0 40 0 0 -160z"/>
<path d="M3065 4615 l-25 -24 0 -431 0 -431 25 -24 24 -25 271 0 271 0 24 25 25 24 0 431 0 431 -25 24 -24 25 -271 0 -271 0 -24 -25z m455 -455 l0 -320 -160 0 -160 0 0 320 0 320 160 0 160 0 0 -320z"/>
<path d="M4000 4560 l0 -80 240 0 240 0 0 -120 0 -120 -240 0 -240 0 0 -80 0 -80 240 0 240 0 0 -120 0 -120 -240 0 -240 0 0 -80 0 -80 295 0 296 0 24 25 25 24 0 431 0 431 -25 24 -24 25 -296 0 -295 0 0 -80z"/>
<path d="M3120 3440 l0 -80 160 0 160 0 0 -40 0 -40 -160 0 -160 0 0 -80 0 -80 160 0 160 0 0 -40 0 -40 -160 0 -160 0 0 -80 0 -80 215 0 c216 0 216 0 240 25 l25 24 0 271 0 271 -25 24 c-24 25 -24 25 -240 25 l-215 0 0 -80z"/>
<path d="M4105 3495 l-25 -24 0 -271 0 -271 25 -24 c24 -25 24 -25 240 -25 l215 0 0 80 0 80 -160 0 -160 0 0 40 0 40 160 0 160 0 0 80 0 80 -160 0 -160 0 0 40 0 40 160 0 160 0 0 80 0 80 -215 0 c-216 0 -216 0 -240 -25z"/>
<path d="M3145 2695 l-25 -24 0 -271 0 -271 25 -24 c24 -25 24 -25 240 -25 l215 0 0 80 0 80 -160 0 -160 0 0 40 0 40 160 0 160 0 0 80 0 80 -160 0 -160 0 0 40 0 40 160 0 160 0 0 80 0 80 -215 0 c-216 0 -216 0 -240 -25z"/>
<path d="M4080 2640 l0 -80 160 0 160 0 0 -40 0 -40 -160 0 -160 0 0 -80 0 -80 160 0 160 0 0 -40 0 -40 -160 0 -160 0 0 -80 0 -80 215 0 c216 0 216 0 240 25 l25 24 0 271 0 271 -25 24 c-24 25 -24 25 -240 25 l-215 0 0 -80z"/>
<path d="M4105 1895 l-25 -24 0 -271 0 -271 25 -24 c24 -25 26 -25 215 -25 189 0 191 0 215 25 l25 24 0 271 0 271 -25 24 c-24 25 -26 25 -215 25 -189 0 -191 0 -215 -25z m295 -295 l0 -160 -80 0 -80 0 0 160 0 160 80 0 80 0 0 -160z"/>
<path d="M4105 1095 l-25 -24 0 -271 0 -271 25 -24 c24 -25 26 -25 215 -25 189 0 191 0 215 25 l25 24 0 271 0 271 -25 24 c-24 25 -26 25 -215 25 -189 0 -191 0 -215 -25z m295 -295 l0 -160 -80 0 -80 0 0 160 0 160 80 0 80 0 0 -160z"/>
</g>
</svg>