<?xml version="1.0" encoding="UTF-8" standalone="no"?>
<!DOCTYPE svg PUBLIC "-//W3C//DTD SVG 20010904//EN" "http://www.w3.org/TR/2001/REC-SVG-20010904/DTD/svg10.dtd">
<svg version="1.0" xmlns="http://www.w3.org/2000/svg" width="460.000000pt" height="409.581756pt" viewBox="0 0 460.000000 409.581756" preserveAspectRatio="xMidYMid meet">
<metadata>
Created by potrace 1.12, written by Peter Selinger 2001-2015
</metadata>
<g transform="translate(-26.000000,460.581756) scale(0.100000,-0.100000)" fill="#000000" stroke="none">
<path d="M2435 4600 c-248 -26 -476 -114 -675 -260 -83 -61 -232 -215 -294 -302 -106 -150 -189 -353 -222 -541 -22 -122 -22 -334 -1 -454 100 -558 533 -990 1091 -1090 119 -21 333 -21 452 0 418 75 773 338 965 713 156 307 186 675 83 1005 -104 334 -354 629 -670 790 -219 111 -493 163 -729 139z"/>
<path d="M1510 1685 c-166 -29 -296 -72 -452 -152 -149 -76 -265 -160 -388 -283 -128 -129 -213 -247 -291 -405 -53 -109 -119 -286 -119 -321 0 -12 328 -14 2300 -14 1972 0 2300 2 2300 14 0 31 -64 206 -109 302 -207 434 -589 734 -1081 850 -69 17 -158 18 -1080 20 -788 2 -1021 -1 -1080 -11z"/>
</g>
</svg>